<svg width="25" height="24" viewBox="0 0 25 24" fill="none" xmlns="http://www.w3.org/2000/svg">
<path d="M5.7334 10H7.7334C9.7334 10 10.7334 9 10.7334 7V5C10.7334 3 9.7334 2 7.7334 2H5.7334C3.7334 2 2.7334 3 2.7334 5V7C2.7334 9 3.7334 10 5.7334 10Z" stroke="#394867" stroke-width="1.5" stroke-miterlimit="10" stroke-linecap="round" stroke-linejoin="round"/>
<path d="M17.7334 10H19.7334C21.7334 10 22.7334 9 22.7334 7V5C22.7334 3 21.7334 2 19.7334 2H17.7334C15.7334 2 14.7334 3 14.7334 5V7C14.7334 9 15.7334 10 17.7334 10Z" stroke="#394867" stroke-width="1.5" stroke-miterlimit="10" stroke-linecap="round" stroke-linejoin="round"/>
<path d="M17.7334 22H19.7334C21.7334 22 22.7334 21 22.7334 19V17C22.7334 15 21.7334 14 19.7334 14H17.7334C15.7334 14 14.7334 15 14.7334 17V19C14.7334 21 15.7334 22 17.7334 22Z" stroke="#394867" stroke-width="1.5" stroke-miterlimit="10" stroke-linecap="round" stroke-linejoin="round"/>
<path d="M5.7334 22H7.7334C9.7334 22 10.7334 21 10.7334 19V17C10.7334 15 9.7334 14 7.7334 14H5.7334C3.7334 14 2.7334 15 2.7334 17V19C2.7334 21 3.7334 22 5.7334 22Z" stroke="#394867" stroke-width="1.5" stroke-miterlimit="10" stroke-linecap="round" stroke-linejoin="round"/>
</svg>
