<svg width="25" height="24" viewBox="0 0 25 24" fill="none" xmlns="http://www.w3.org/2000/svg">
<path d="M20.7334 7.04V16.96C20.7334 18.48 20.5934 19.56 20.2334 20.33C20.2334 20.34 20.2234 20.36 20.2134 20.37C19.9934 20.65 19.7034 20.79 19.3634 20.79C18.8334 20.79 18.1934 20.44 17.5034 19.7C16.6834 18.82 15.4234 18.89 14.7034 19.85L13.6934 21.19C13.2934 21.73 12.7634 22 12.2334 22C11.7034 22 11.1734 21.73 10.7734 21.19L9.75342 19.84C9.04342 18.89 7.79339 18.82 6.97339 19.69L6.96338 19.7C5.83338 20.91 4.83342 21.09 4.25342 20.37C4.24342 20.36 4.2334 20.34 4.2334 20.33C3.8734 19.56 3.7334 18.48 3.7334 16.96V7.04C3.7334 5.52 3.8734 4.44 4.2334 3.67C4.2334 3.66 4.23342 3.65 4.25342 3.64C4.82342 2.91 5.83338 3.09 6.96338 4.3L6.97339 4.31C7.79339 5.18 9.04342 5.11 9.75342 4.16L10.7734 2.81C11.1734 2.27 11.7034 2 12.2334 2C12.7634 2 13.2934 2.27 13.6934 2.81L14.7034 4.15C15.4234 5.11 16.6834 5.18 17.5034 4.3C18.1934 3.56 18.8334 3.21 19.3634 3.21C19.7034 3.21 19.9934 3.36 20.2134 3.64C20.2334 3.65 20.2334 3.66 20.2334 3.67C20.5934 4.44 20.7334 5.52 20.7334 7.04Z" stroke="#E6E6E6" stroke-width="1.5" stroke-linecap="round" stroke-linejoin="round"/>
<path d="M8.7334 10.25H16.7334" stroke="#E6E6E6" stroke-width="1.5" stroke-linecap="round" stroke-linejoin="round"/>
<path d="M8.7334 13.75H14.7334" stroke="#E6E6E6" stroke-width="1.5" stroke-linecap="round" stroke-linejoin="round"/>
</svg>
