<?xml version="1.0" standalone="no"?>
<!DOCTYPE svg PUBLIC "-//W3C//DTD SVG 20010904//EN"
 "http://www.w3.org/TR/2001/REC-SVG-20010904/DTD/svg10.dtd">
<svg version="1.0" xmlns="http://www.w3.org/2000/svg"
 width="240.000000pt" height="233.000000pt" viewBox="0 0 240.000000 233.000000"
 preserveAspectRatio="xMidYMid meet">

<g transform="translate(0.000000,233.000000) scale(0.100000,-0.100000)"
fill="#000000" stroke="none">

<path d="M1090 2179 c-339 -39 -632 -242 -771 -534 -83 -174 -110 -335 -85
-501 16 -103 33 -174 42 -174 3 0 3 12 0 28 -73 350 56 701 333 911 134 101
258 158 409 187 92 18 283 18 382 0 298 -54 574 -272 690 -545 53 -123 72
-222 73 -366 1 -134 10 -129 22 15 30 343 -182 708 -505 870 -184 93 -395 132
-590 109z"/>
<path d="M1091 1861 c-36 -34 -40 -67 -11 -104 42 -53 143 -53 188 -2 30 36
28 71 -7 106 -25 25 -37 29 -84 29 -47 0 -60 -4 -86 -29z"/>
<path d="M1085 1654 c-147 -24 -319 -90 -390 -150 l-30 -26 35 6 c141 26 329
56 347 56 24 0 22 4 46 -140 l13 -75 -46 -56 c-25 -31 -53 -78 -63 -104 l-17
-48 79 75 c43 42 100 88 127 103 118 67 161 110 179 175 l6 25 -24 -26 c-13
-15 -36 -35 -51 -45 l-28 -18 7 60 c4 32 10 63 12 67 8 13 170 -6 317 -39 38
-8 70 -13 73 -10 9 9 -66 57 -148 95 -46 21 -118 46 -159 56 -76 17 -231 27
-285 19z"/>
<path d="M1670 1189 c-24 -157 -38 -219 -47 -219 -28 0 -216 31 -227 37 -7 4
-6 1 1 -8 7 -9 34 -27 61 -42 138 -75 329 -77 484 -4 57 27 110 64 74 53 -21
-7 -208 -36 -230 -36 -10 0 -17 25 -26 88 -7 48 -22 146 -34 219 l-21 132 -35
-220z"/>
<path d="M622 1210 c-18 -108 -32 -205 -32 -218 0 -16 -6 -22 -22 -22 -26 0
-189 26 -222 35 -21 6 -21 6 -1 -10 112 -91 313 -121 472 -70 77 25 172 75
143 75 -8 0 -63 -7 -123 -16 -60 -9 -110 -14 -112 -12 -2 2 -19 100 -38 218
l-33 215 -32 -195z"/>
<path fill='#F94C66' d="M1300 1309 c-25 -17 -72 -44 -105 -60 -65 -31 -121 -82 -154 -142
-35 -64 -23 -68 30 -12 28 30 55 53 59 50 4 -2 15 -61 26 -130 10 -69 21 -119
25 -112 4 6 17 81 30 164 18 122 26 154 40 158 20 7 99 90 99 105 0 13 1 14
-50 -21z"/>
<path d="M728 700 c-87 -27 -138 -93 -138 -178 0 -64 13 -98 53 -140 66 -68
202 -70 261 -3 20 22 20 22 -1 43 -21 21 -25 20 -73 -7 -43 -25 -86 -19 -126
18 -31 28 -36 38 -36 79 0 25 7 57 16 71 33 49 107 61 165 26 l35 -21 18 24
c24 32 23 34 -19 62 -42 27 -114 40 -155 26z"/>
<path d="M440 515 l0 -185 35 0 35 0 0 185 0 185 -35 0 -35 0 0 -185z"/>
<path d="M990 516 l0 -186 40 0 40 0 0 60 0 60 33 0 c28 0 37 -8 72 -60 40
-59 41 -60 88 -60 l49 0 -46 64 -46 65 29 29 c37 37 48 90 29 140 -20 53 -53
65 -180 70 l-108 4 0 -186z m201 104 c23 -13 26 -62 3 -84 -10 -11 -34 -16
-70 -16 l-54 0 0 55 0 55 51 0 c28 0 59 -5 70 -10z"/>
<path d="M1370 515 l0 -185 135 0 135 0 0 35 0 35 -95 0 -95 0 0 40 0 40 85 0
85 0 0 35 0 35 -85 0 -85 0 0 40 0 40 88 0 c49 0 91 2 94 5 2 3 3 18 0 35 l-4
30 -129 0 -129 0 0 -185z"/>
<path d="M1720 516 l0 -186 34 0 35 0 3 53 3 52 70 6 c39 3 78 9 87 13 31 14
51 57 51 111 0 99 -38 127 -185 133 l-98 4 0 -186z m188 98 c25 -17 29 -60 9
-88 -17 -24 -105 -35 -118 -15 -5 8 -9 38 -9 67 l0 52 48 0 c27 0 57 -7 70
-16z"/>
<path fill='#F94C66' d="M320 170 l0 -70 865 0 865 0 0 70 0 70 -865 0 -865 0 0 -70z"/>
</g>
</svg>
