<svg width="46" height="46" viewBox="0 0 46 46" fill="none" xmlns="http://www.w3.org/2000/svg">
<path d="M44.0837 36.4167C44.0837 37.4333 43.6798 38.4084 42.9609 39.1272C42.242 39.8461 41.267 40.25 40.2503 40.25H5.75033C4.73366 40.25 3.75864 39.8461 3.03975 39.1272C2.32086 38.4084 1.91699 37.4333 1.91699 36.4167V15.3333C1.91699 14.3167 2.32086 13.3416 3.03975 12.6228C3.75864 11.9039 4.73366 11.5 5.75033 11.5H13.417L17.2503 5.75H28.7503L32.5837 11.5H40.2503C41.267 11.5 42.242 11.9039 42.9609 12.6228C43.6798 13.3416 44.0837 14.3167 44.0837 15.3333V36.4167Z" stroke="#394867" stroke-width="2" stroke-linecap="round" stroke-linejoin="round"/>
<path d="M22.9997 32.5833C27.2339 32.5833 30.6663 29.1508 30.6663 24.9167C30.6663 20.6825 27.2339 17.25 22.9997 17.25C18.7655 17.25 15.333 20.6825 15.333 24.9167C15.333 29.1508 18.7655 32.5833 22.9997 32.5833Z" stroke="#394867" stroke-width="2" stroke-linecap="round" stroke-linejoin="round"/>
</svg>
